<?xml version="1.0" encoding="UTF-8" standalone="no"?>
<!-- Generator: Adobe Illustrator 16.0.0, SVG Export Plug-In . SVG Version: 6.00 Build 0)  -->

<svg
   xmlns:dc="http://purl.org/dc/elements/1.1/"
   xmlns:cc="http://creativecommons.org/ns#"
   xmlns:rdf="http://www.w3.org/1999/02/22-rdf-syntax-ns#"
   xmlns:svg="http://www.w3.org/2000/svg"
   xmlns="http://www.w3.org/2000/svg"
   xmlns:sodipodi="http://sodipodi.sourceforge.net/DTD/sodipodi-0.dtd"
   xmlns:inkscape="http://www.inkscape.org/namespaces/inkscape"
   version="1.1"
   id="Layer_1"
   x="0px"
   y="0px"
   width="1000"
   height="369.25299"
   viewBox="0 0 1000 369.25299"
   enable-background="new 0 0 568.003 209.737"
   xml:space="preserve"
   sodipodi:docname="Technicolor 2010 (Print).svg"
   inkscape:version="0.92.2 (5c3e80d, 2017-08-06)"><metadata
     id="metadata74829"><rdf:RDF><cc:Work
         rdf:about=""><dc:format>image/svg+xml</dc:format><dc:type
           rdf:resource="http://purl.org/dc/dcmitype/StillImage" /><dc:title></dc:title></cc:Work></rdf:RDF></metadata><defs
     id="defs74827" /><sodipodi:namedview
     pagecolor="#ffffff"
     bordercolor="#666666"
     borderopacity="1"
     objecttolerance="10"
     gridtolerance="10"
     guidetolerance="10"
     inkscape:pageopacity="0"
     inkscape:pageshadow="2"
     inkscape:window-width="1360"
     inkscape:window-height="706"
     id="namedview74825"
     showgrid="false"
     inkscape:zoom="0.49999737"
     inkscape:cx="284.0015"
     inkscape:cy="184.86892"
     inkscape:window-x="-8"
     inkscape:window-y="-8"
     inkscape:window-maximized="1"
     inkscape:current-layer="Layer_1" /><g
     id="g74822"
     transform="matrix(1.7605541,0,0,1.7605541,0,-3.2023438e-4)"
     style="fill:#000000"><polyline
       points="0,134.162 0,185.679 37.268,185.679 37.268,134.162 34.209,134.162  "
       id="polyline74742"
       style="fill:#000000" /><polyline
       points="40.758,134.162 40.758,209.737 78.022,209.737 78.022,134.162 75.631,134.162  "
       id="polyline74744"
       style="fill:#000000" /><polyline
       points="81.515,134.162 81.515,178.8 118.78,178.8 118.78,134.162 116.935,134.162  "
       id="polyline74746"
       style="fill:#000000" /><polyline
       points="122.27,134.162 122.27,189.109 159.534,189.109 159.534,134.162 158.208,134.162  "
       id="polyline74748"
       style="fill:#000000" /><polyline
       points="163.025,134.162 163.025,207.445 200.29,207.445 200.29,134.162 199.44,134.162  "
       id="polyline74750"
       style="fill:#000000" /><polyline
       points="203.78,134.162 203.78,199.42 241.047,199.42 241.047,134.162 240.684,134.162  "
       id="polyline74752"
       style="fill:#000000" /><rect
       x="244.539"
       y="134.162"
       width="37.263"
       height="50.363998"
       id="rect74754"
       style="fill:#000000" /><polyline
       points="285.295,187.935 285.295,200.566 322.561,200.566 322.561,134.163 285.295,134.163  "
       id="polyline74756"
       style="fill:#000000" /><polyline
       points="448.772,137.218 448.772,167.344 486.042,167.344 486.042,134.162 448.772,134.162  "
       id="polyline74758"
       style="fill:#000000" /><polyline
       points="489.532,136.473 489.532,186.813 526.792,186.813 526.792,134.163 489.532,134.163  "
       id="polyline74760"
       style="fill:#000000" /><polyline
       points="530.288,135.929 530.288,201.713 568.003,201.713 568.003,134.155 530.288,134.155  "
       id="polyline74762"
       style="fill:#000000" /><rect
       x="326.05399"
       y="134.159"
       width="37.259998"
       height="46.928001"
       id="rect74764"
       style="fill:#000000" /><polyline
       points="366.807,184.5 366.807,193.695 404.064,193.695 404.064,134.163 366.807,134.163  "
       id="polyline74766"
       style="fill:#000000" /><polyline
       points="407.56,138.476 407.56,175.358 445.276,175.358 445.276,134.157 407.56,134.157  "
       id="polyline74768"
       style="fill:#000000" /><polyline
       points="38.589,130.578 58.728,114.032 27.394,114.032 3.914,130.578 37.263,130.578  "
       id="polyline74770"
       style="fill:#000000" /><polyline
       points="78.021,130.578 79.219,130.578 96.005,114.032 64.152,114.032 44.016,130.578  "
       id="polyline74772"
       style="fill:#000000" /><polyline
       points="118.777,130.578 119.82,130.578 130.013,118.019 133.263,114.032 100.924,114.032 84.133,130.578     "
       id="polyline74774"
       style="fill:#000000" /><polyline
       points="159.531,130.578 160.39,130.578 165.429,122.303 170.474,114.032 137.717,114.032    124.277,130.578  "
       id="polyline74776"
       style="fill:#000000" /><polyline
       points="200.285,130.578 200.916,130.578 204.286,122.303 207.652,114.032 174.542,114.032    164.458,130.578  "
       id="polyline74778"
       style="fill:#000000" /><polyline
       points="241.047,130.578 241.398,130.578 243.092,122.303 244.785,114.032 211.421,114.032    208.048,122.303 204.68,130.578  "
       id="polyline74780"
       style="fill:#000000" /><polyline
       points="281.824,122.298 281.845,114.026 248.351,114.026 244.961,130.571 281.808,130.571  "
       id="polyline74782"
       style="fill:#000000" /><polyline
       points="322.148,130.578 318.833,114.032 285.338,114.032 285.311,122.303 285.298,130.578  "
       id="polyline74784"
       style="fill:#000000" /><polyline
       points="447.732,130.578 483.426,130.578 466.672,114.032 434.328,114.032 441.032,122.303    447.729,130.578  "
       id="polyline74786"
       style="fill:#000000" /><polyline
       points="489.354,130.578 523.549,130.578 503.451,114.032 471.582,114.032 488.342,130.578  "
       id="polyline74788"
       style="fill:#000000" /><polyline
       points="528.971,130.578 564.1,130.578 540.612,114.032 508.866,114.032 528.964,130.578  "
       id="polyline74790"
       style="fill:#000000" /><polyline
       points="326.017,130.578 362.419,130.578 355.762,114.032 322.393,114.032 324.048,122.303    325.707,130.578  "
       id="polyline74792"
       style="fill:#000000" /><polyline
       points="366.736,130.578 402.641,130.578 392.637,114.032 359.516,114.032 362.848,122.303    366.176,130.578  "
       id="polyline74794"
       style="fill:#000000" /><polyline
       points="407.448,130.578 443.276,130.578 429.875,114.032 396.69,114.032 401.698,122.303    406.706,130.578  "
       id="polyline74796"
       style="fill:#000000" /><g
       id="g74820"
       style="fill:#000000"><path
         d="m 52.369,43.349 v 26.854 c 0,4.442 2.566,6.265 7.697,6.265 1.397,0 2.445,-0.117 4.08,-0.341 l 0.941,7.284 c -2.916,0.566 -5.494,0.905 -8.05,0.905 -8.871,0 -13.656,-4.55 -13.656,-15.02 V 43.349 h -7.818 v -1.135 l 7.818,-7.396 v -8.306 l 8.987,-6.496 v 15.596 h 14.465 v 7.736"
         id="path74798"
         inkscape:connector-curvature="0"
         style="fill:#000000" /><path
         d="m 111.204,55.413 c -0.592,-7.395 -4.9,-13.201 -13.535,-13.201 -7.939,0 -12.833,5.008 -13.885,13.201 h 27.42 m 8.167,6.831 H 83.428 c 1.053,8.186 5.72,14.337 18.319,14.337 4.089,0 8.986,-1.138 13.54,-2.616 l 1.633,7.62 c -5.602,1.592 -11.436,2.729 -15.986,2.729 -17.621,0 -26.488,-10.809 -26.488,-24.573 0,-13.087 8.635,-25.039 23.806,-25.039 13.89,0 21.471,10.012 21.471,22.993 -0.001,1.585 -0.001,2.844 -0.352,4.549"
         id="path74800"
         inkscape:connector-curvature="0"
         style="fill:#000000" /><path
         d="m 154.987,84.315 c -15.522,0 -26.489,-10.813 -26.489,-24.578 0,-13.773 10.967,-25.038 26.489,-25.038 6.064,0 12.25,2.166 16.677,4.896 l -3.732,6.824 c -3.965,-2.27 -8.75,-3.98 -13.764,-3.98 -9.574,0 -16.807,6.376 -16.807,17.298 0,10.351 8.407,16.842 17.398,16.842 5.015,0 9.79,-1.706 13.765,-3.985 l 3.141,6.826 c -4.428,2.738 -10.614,4.895 -16.678,4.895"
         id="path74802"
         inkscape:connector-curvature="0"
         style="fill:#000000" /><path
         d="M 272.943,83.411 V 53.364 c 0,-7.395 -2.797,-11.147 -9.916,-11.147 -5.485,0 -11.207,3.752 -14.935,7.733 v 33.461 h -9.224 V 35.612 h 8.75 v 7.285 c 5.142,-5.009 11.562,-8.193 18.098,-8.193 11.313,0 16.445,6.721 16.445,16.267 V 83.41"
         id="path74804"
         inkscape:connector-curvature="0"
         style="fill:#000000" /><path
         d="m 297.678,35.609 h 9.212 v 47.798 h -9.212 z m 4.673,-10.802 c -3.273,0 -5.838,-2.627 -5.838,-5.693 0,-3.192 2.564,-5.804 5.838,-5.804 3.257,0 5.827,2.612 5.827,5.804 0,3.066 -2.57,5.693 -5.827,5.693"
         id="path74806"
         inkscape:connector-curvature="0"
         style="fill:#000000" /><path
         d="m 345.163,84.315 c -15.513,0 -26.482,-10.813 -26.482,-24.578 0,-13.773 10.97,-25.038 26.482,-25.038 6.066,0 12.255,2.166 16.686,4.896 l -3.732,6.824 c -3.971,-2.27 -8.753,-3.98 -13.764,-3.98 -9.573,0 -16.808,6.376 -16.808,17.298 0,10.351 8.402,16.842 17.385,16.842 5.018,0 9.8,-1.706 13.768,-3.985 l 3.151,6.826 c -4.432,2.738 -10.62,4.895 -16.686,4.895"
         id="path74808"
         inkscape:connector-curvature="0"
         style="fill:#000000" /><path
         d="m 393.473,41.984 c -9.458,0 -15.755,7.061 -15.755,17.53 0,10.461 6.297,17.518 15.755,17.518 9.342,0 15.627,-7.057 15.627,-17.518 0,-10.47 -6.285,-17.53 -15.627,-17.53 m 0,42.331 c -14.93,0 -24.855,-11.148 -24.855,-24.801 0,-13.66 9.926,-24.814 24.855,-24.814 14.928,0 24.728,11.154 24.728,24.814 0,13.653 -9.8,24.801 -24.728,24.801"
         id="path74810"
         inkscape:connector-curvature="0"
         style="fill:#000000" /><rect
         x="428.70499"
         y="0.001"
         width="9.2130003"
         height="83.408997"
         id="rect74812"
         style="fill:#000000" /><path
         d="m 473.277,41.984 c -9.458,0 -15.755,7.061 -15.755,17.53 0,10.461 6.297,17.518 15.755,17.518 9.337,0 15.637,-7.057 15.637,-17.518 0,-10.47 -6.3,-17.53 -15.637,-17.53 m 0,42.331 c -14.935,0 -24.853,-11.148 -24.853,-24.801 0,-13.66 9.918,-24.814 24.853,-24.814 14.929,0 24.728,11.154 24.728,24.814 -10e-4,13.653 -9.799,24.801 -24.728,24.801"
         id="path74814"
         inkscape:connector-curvature="0"
         style="fill:#000000" /><path
         d="m 517.374,50.75 v 32.661 h -9.209 V 35.612 h 8.746 v 7.964 c 4.664,-5.918 11.082,-8.87 17.497,-8.87 v 8.755 c -7.111,0.001 -13.65,2.507 -17.034,7.289"
         id="path74816"
         inkscape:connector-curvature="0"
         style="fill:#000000" /><path
         d="M 217.057,83.411 V 53.364 c 0,-7.395 -3.271,-11.147 -10.267,-11.147 -5.488,0 -11.669,3.752 -15.291,7.733 v 33.461 h -9.211 V 0 h 9.211 v 42.786 c 5.135,-5.126 11.203,-8.082 17.621,-8.082 11.322,0 17.158,6.721 17.158,16.267 V 83.41"
         id="path74818"
         inkscape:connector-curvature="0"
         style="fill:#000000" /></g></g></svg>